<?xml version="1.0" encoding="UTF-8"?>
<svg width="24px" height="24px" viewBox="0 0 24 24" version="1.1" xmlns="http://www.w3.org/2000/svg" xmlns:xlink="http://www.w3.org/1999/xlink">
    <!-- Generator: Sketch 49 (51002) - http://www.bohemiancoding.com/sketch -->
    <title>icon-doc-s</title>
    <desc>Created with Sketch.</desc>
    <defs></defs>
    <g id="icon-doc-s" stroke="none" stroke-width="1" fill="none" fill-rule="evenodd">
        <g id="icon-upload-file">
            <rect id="Rectangle-5" x="0" y="0" width="24" height="24"></rect>
            <path d="M5,3 L19,3 C19.5522847,3 20,3.44771525 20,4 L20,20 C20,20.5522847 19.5522847,21 19,21 L5,21 C4.44771525,21 4,20.5522847 4,20 L4,4 C4,3.44771525 4.44771525,3 5,3 Z M7,13 L7,15 L15,15 L15,13 L7,13 Z M7,9 L7,11 L17,11 L17,9 L7,9 Z" id="Combined-Shape" fill="#2980FF"></path>
        </g>
    </g>
</svg>