<?xml version="1.0" standalone="no"?><!DOCTYPE svg PUBLIC "-//W3C//DTD SVG 1.1//EN" "http://www.w3.org/Graphics/SVG/1.1/DTD/svg11.dtd"><svg t="1642851341358" class="icon" viewBox="0 0 1188 1024" version="1.1" xmlns="http://www.w3.org/2000/svg" p-id="5151" xmlns:xlink="http://www.w3.org/1999/xlink" width="148.5" height="128"><defs><style type="text/css"></style></defs><path d="M1108.13986 0H78.769231C35.804196 0 0 35.804196 0 78.769231v560.335664l279.272727-180.811189 134.265735 155.748252 298.965035-282.853147 474.405594 298.965035V78.769231C1188.699301 35.804196 1152.895105 0 1108.13986 0zM207.664336 417.118881c-55.496503 0-98.461538-44.755245-98.461539-98.461538s44.755245-98.461538 98.461539-98.461539 98.461538 44.755245 98.461538 98.461539-42.965035 98.461538-98.461538 98.461538z" fill="#F39800" p-id="5152"></path><path d="M721.454545 409.958042L409.958042 705.342657 268.531469 540.643357 0 716.083916v229.146853c0 42.965035 35.804196 78.769231 78.769231 78.769231h1029.370629c42.965035 0 78.769231-35.804196 78.769231-78.769231V705.342657l-465.454546-295.384615z" fill="#F39800" p-id="5153"></path></svg>