<?xml version="1.0" encoding="UTF-8"?>
<svg width="134px" height="134px" viewBox="0 0 134 134" version="1.1" xmlns="http://www.w3.org/2000/svg" xmlns:xlink="http://www.w3.org/1999/xlink">
    <title>icon_GridView</title>
    <g id="页面-1" stroke="none" stroke-width="1" fill="none" fill-rule="evenodd">
        <g id="画板" transform="translate(-244.000000, -102.000000)">
            <g id="Content/Grid/↳File-icons/jpg_large" transform="translate(244.000000, 102.000000)">
                <g id="ico_jpg_large">
                    <rect id="Rectangle-8" x="0" y="0" width="134" height="134"></rect>
                    <path d="M11,1.9982312 C11,0.894638583 11.9015377,0 12.991504,0 L121.008496,0 C122.108373,0 123,0.89112382 123,1.9982312 L123,132.001769 C123,133.105361 122.098462,134 121.008496,134 L12.991504,134 C11.8916267,134 11,133.108876 11,132.001769 L11,1.9982312 Z" id="bg" fill="#E4E4E4"></path>
                    <path d="M12,1.99771747 C12,1.44669333 12.4432021,1 13.0015666,1 L120.998433,1 C121.551583,1 122,1.44866088 122,1.99771747 L122,131.002283 C122,131.553307 121.556798,132 120.998433,132 L13.0015666,132 C12.4484166,132 12,131.551339 12,131.002283 L12,1.99771747 Z" id="bg" fill="#FFFFFF"></path>
                    <g id="Group" transform="translate(37.000000, 42.000000)">
                        <path d="M43.0185356,42.6056277 C43.0185356,43.2113868 43.6323288,44.2274628 44.8599153,45.6538557 L44.8598968,45.6538799 C45.2972314,46.1620405 45.3175705,47.0110029 44.9053253,47.5500904 C44.6997105,47.8189702 44.4132234,47.9714286 44.1134609,47.9714286 L37.5818308,47.9714286 L37.5818308,47.9714286 C36.980794,47.9714286 36.4935574,47.3708286 36.4935574,46.629951 C36.4935574,46.2617739 36.6163177,45.9097794 36.8330674,45.6564629 C38.0547294,44.2287008 38.6655604,43.2117558 38.6655604,42.6056277 L38.6705882,42.6056277 C38.7117832,40.9991298 36.3111074,39.5055961 33.6873298,37.871369 C27.2411187,34.4313303 22.3428571,26.7971277 22.3428571,19.2294001 C22.3428571,9.0248242 30.6277212,0.752380952 40.847619,0.752380952 C51.0675168,0.752380952 59.352381,9.0248242 59.352381,19.2294001 C59.352381,26.7971277 54.4541194,34.4313303 48.0079083,37.871369 C45.3841307,39.5055961 42.9834549,40.9991298 43.0246499,42.6056277 L43.0185356,42.6056277 L43.0185356,42.6056277 Z" id="Combined-Shape" fill="#65A8FF"></path>
                        <path d="M26.6037522,39.3399087 C24.8762284,40.8960385 23.5040141,42.3230833 23.763434,43.5511222 L23.7578326,43.5520665 C23.8586202,44.0989358 24.589984,44.9214389 25.951924,46.0195757 L25.951911,46.0196004 C26.4371099,46.4108179 26.5969951,47.174106 26.3090247,47.7244521 C26.1653941,47.9989472 25.9282986,48.180796 25.6536809,48.2270911 L19.6699399,49.2358296 L19.669946,49.2358625 C19.1193256,49.3286861 18.5730305,48.8617227 18.4497616,48.1928705 C18.3885034,47.8604863 18.4424006,47.5237525 18.5988215,47.261588 C19.4804532,45.7839556 19.8708446,44.7715382 19.7699956,44.2243357 L19.7746017,44.2235592 C19.5450484,42.7668772 17.0972497,41.7892976 14.4216545,40.719158 C7.94380598,38.6090942 2.18622678,32.4735445 0.927091174,25.6415245 C-0.770769184,16.4290014 5.44275248,7.68126951 14.8053802,6.10291852 C16.9865378,5.73521916 19.1461856,5.7890569 21.1974359,6.20446016 C18.696036,9.96559488 17.2380952,14.4848815 17.2380952,19.3446414 C17.2380952,26.819268 20.9381509,34.3560988 26.6037522,39.3399087 L26.6037522,39.3399087 Z" id="Path" fill="#4C94F0"></path>
                    </g>
                </g>
            </g>
        </g>
    </g>
</svg>