<?xml version="1.0" encoding="UTF-8"?>
<svg width="134px" height="134px" viewBox="0 0 134 134" version="1.1" xmlns="http://www.w3.org/2000/svg" xmlns:xlink="http://www.w3.org/1999/xlink">
    <!-- Generator: Sketch 49.3 (51167) - http://www.bohemiancoding.com/sketch -->
    <title>icon-pdf-l</title>
    <desc>Created with Sketch.</desc>
    <defs></defs>
    <g id="Page-1" stroke="none" stroke-width="1" fill="none" fill-rule="evenodd">
        <g id="weiyun2018_WEB_fileicon" transform="translate(-448.000000, -860.000000)">
            <g id="fileico/pdf_large" transform="translate(448.000000, 860.000000)">
                <g id="ico_pdf_large">
                    <rect id="Rectangle-8" x="0" y="0" width="134" height="134"></rect>
                    <path d="M11,1.9982312 C11,0.894638583 11.9015377,0 12.991504,0 L121.008496,0 C122.108373,0 123,0.89112382 123,1.9982312 L123,132.001769 C123,133.105361 122.098462,134 121.008496,134 L12.991504,134 C11.8916267,134 11,133.108876 11,132.001769 L11,1.9982312 Z" id="bg" fill="#E4E4E4"></path>
                    <path d="M12,1.99771747 C12,1.44669333 12.4432021,1 13.0015666,1 L120.998433,1 C121.551583,1 122,1.44866088 122,1.99771747 L122,131.002283 C122,131.553307 121.556798,132 120.998433,132 L13.0015666,132 C12.4484166,132 12,131.551339 12,131.002283 L12,1.99771747 Z" id="bg" fill="#FFFFFF"></path>
                    <path d="M59.942377,82.2283618 C58.5288682,84.9385774 56.8225053,87.768813 55.6338989,89.2761707 C51.7157807,94.8712559 45.1967895,97.252391 42.6951863,92.3207946 C40.7721179,88.5297072 43.0189175,84.6248808 47.2197803,82.0335302 C48.0693517,81.4908518 52.3994665,79.7729406 56.2581675,78.2882743 C56.8886545,77.0012126 57.3553555,75.906063 57.4877037,75.3144915 L57.5247968,75.1486924 L57.5830339,74.9893075 C59.5099626,69.7156368 62.1194963,61.5883803 62.5258896,59.4165514 C62.5676303,59.1934828 62.6968633,58.6659697 62.8579826,58.0346499 C60.438933,52.5566568 58.5227612,47.3277784 58.5227612,45.1887137 C58.5227612,37.5513314 67.4188988,36.8594702 69.61076,43.8010891 C70.2805026,45.9221622 70.1875297,48.5744376 69.5703442,51.8847976 C69.3444061,53.0966482 69.0551138,54.3553398 68.6864599,55.7848825 C68.6881698,55.7782521 68.4642729,56.6076258 68.2092346,57.5677349 C70.7196603,63.0129504 73.6063233,68.5521757 75.0986893,70.5249684 C75.4468933,70.8736083 75.7943759,71.215048 76.1399627,71.5479676 C81.2978245,70.1079383 84.8299481,69.5173428 86.4800685,69.993758 C93.2608527,71.9514748 92.0850832,82.8330916 85.1372574,82.8330916 C82.682746,82.8330916 79.9865265,81.4132532 76.8681248,78.9746846 C76.1697215,78.4285381 75.504657,77.8761833 74.8528751,77.3057563 C70.1434021,78.725089 64.6021836,80.5643429 59.942377,82.2283618 Z M66.2070823,65.1370154 C65.2208614,68.3924224 63.8540106,72.5153605 62.6493648,75.8728119 C63.6138794,75.5365271 64.5934117,75.2001162 65.5789984,74.8669246 C67.402354,74.2505134 69.1242389,73.6837869 70.7400396,73.1706623 C69.5419634,71.4472717 67.8993365,68.5047927 66.2070823,65.1370154 Z M64.79852,45.3734398 C64.2746056,43.7142042 63.5771489,43.7684461 63.5771489,45.1887137 C63.5771489,45.9529457 64.0544819,47.5516084 64.8228379,49.5995203 C65.0873372,47.7179338 65.0808093,46.2674494 64.79852,45.3734398 Z M50.0806281,86.2618208 L49.9653685,86.3529099 L49.8405665,86.4298955 C47.799142,87.6891717 46.9469798,88.985501 47.1182057,89.7689986 C47.2609881,89.7557692 47.4648684,89.7104855 47.7174658,89.6172659 C48.9195145,89.1736568 50.353608,87.9725039 51.5523253,86.2426695 L51.6576333,86.1013209 C51.8696708,85.836233 52.1105294,85.5028998 52.3707778,85.1185543 C51.2023984,85.6167874 50.3954665,86.0130052 50.0806281,86.2618208 Z M85.1372574,77.6915486 C86.0943862,77.6915486 86.3526244,75.3015828 85.1000331,74.9399404 C84.6056058,74.7971916 83.0580925,75.0709945 80.8701912,75.6179765 C82.6323362,76.9112703 84.1339881,77.6915486 85.1372574,77.6915486 Z" id="pdf" fill="#FF5555" fill-rule="nonzero"></path>
                </g>
            </g>
        </g>
    </g>
</svg>