<?xml version="1.0" encoding="UTF-8"?>
<svg width="40px" height="40px" viewBox="0 0 40 40" version="1.1" xmlns="http://www.w3.org/2000/svg" xmlns:xlink="http://www.w3.org/1999/xlink">
    <!-- Generator: Sketch 49 (51002) - http://www.bohemiancoding.com/sketch -->
    <title>ico_doc_mini</title>
    <desc>Created with Sketch.</desc>
    <defs>
        <rect id="path-1" x="8" y="3" width="27" height="34" rx="1"></rect>
    </defs>
    <g id="Page-1" stroke="none" stroke-width="1" fill="none" fill-rule="evenodd">
        <g id="weiyun2018_WEB_fileicon" transform="translate(-448.000000, -420.000000)">
            <g id="fileico/doc_mini" transform="translate(448.000000, 420.000000)">
                <g id="ico_doc_mini">
                    <rect id="bg" x="0" y="0" width="40" height="40"></rect>
                    <g id="Rectangle-23-Copy">
                        <use fill="#FFFFFF" fill-rule="evenodd" xlink:href="#path-1"></use>
                        <rect stroke="#E0E0E0" stroke-width="1" x="8.5" y="3.5" width="26" height="33" rx="1"></rect>
                    </g>
                    <path d="M12,12 L31,12 L31,14 L12,14 L12,12 Z M12,16 L31,16 L31,18 L12,18 L12,16 Z M12,20 L31,20 L31,22 L12,22 L12,20 Z M12,24 L31,24 L31,26 L12,26 L12,24 Z M12,28 L31,28 L31,30 L12,30 L12,28 Z" id="Combined-Shape" fill="#E5E5E5"></path>
                    <path d="M5.87596527,11.8905043 L19.8759653,10.1405043 C20.4239852,10.0720018 20.9237754,10.4607275 20.9922779,11.0087475 C20.997421,11.0498923 21,11.0913172 21,11.1327822 L21,31.8672178 C21,32.4195025 20.5522847,32.8672178 20,32.8672178 C19.958535,32.8672178 19.9171101,32.8646388 19.8759653,32.8594957 L5.87596527,31.1094957 C5.37553644,31.0469421 5,30.6215411 5,30.1172178 L5,12.8827822 C5,12.3784589 5.37553644,11.9530579 5.87596527,11.8905043 Z" id="Rectangle-29" fill="#3A74D1"></path>
                    <polygon id="ico_doc_small" fill="#FFFFFF" points="14.9974194 22.6490848 16.36 17.2786667 18.12 17.12 15.7733333 26.509037 14.16 26.36675 12.8400471 21.0742 11.52 26.13875 9.90666667 26.0023704 8.04 18.032 9.8 17.8866667 10.6825806 22.5889808 11.96 17.6636667 13.72 17.5116667"></polygon>
                </g>
            </g>
        </g>
    </g>
</svg>