<?xml version="1.0" standalone="no"?><!DOCTYPE svg PUBLIC "-//W3C//DTD SVG 1.1//EN" "http://www.w3.org/Graphics/SVG/1.1/DTD/svg11.dtd"><svg t="1616314503464" class="icon" viewBox="0 0 1024 1024" version="1.1" xmlns="http://www.w3.org/2000/svg" p-id="1114" xmlns:xlink="http://www.w3.org/1999/xlink" width="200" height="200"><defs><style type="text/css"></style></defs><path d="M738.304 907.5456H422.6304c-34.6624 0-62.7456-28.0832-62.7456-62.7456V334.976h441.1904V844.8c-0.0256 34.6624-28.1088 62.7456-62.7712 62.7456z" fill="#F9C05D" p-id="1115"></path><path d="M801.0496 844.8V334.976h-103.936v490.2144s16.8192 82.3552-90.624 82.3552h131.7888c34.688 0 62.7712-28.0832 62.7712-62.7456z" fill="#EFAC4B" p-id="1116"></path><path d="M856.8576 430.592h-32.7424v-95.616a23.04 23.04 0 0 0-23.04-23.04H359.8592a23.04 23.04 0 0 0-23.04 23.04V844.8c0 47.3088 38.4768 85.7856 85.7856 85.7856H738.304c47.3088 0 85.7856-38.4768 85.7856-85.7856v-31.872h4.7872c78.8736 0 143.0272-64.1536 143.0272-143.0272v-124.2368c0.0256-63.4368-51.6096-115.072-115.0464-115.072zM778.0096 844.8c0 21.888-17.8176 39.7056-39.7056 39.7056H422.6304c-21.888 0-39.7056-17.8176-39.7056-39.7056V358.016h395.1104V844.8z m147.84-174.8992c0 53.4528-43.4944 96.9472-96.9472 96.9472h-4.7872V476.672h32.7424c38.0416 0 68.992 30.9504 68.992 68.992v124.2368z" fill="#474E54" p-id="1117"></path><path d="M536.3456 722.7904c-9.9072 0-17.92-8.0128-17.92-17.92V524.8c0-9.9072 8.0128-17.92 17.92-17.92s17.92 8.0128 17.92 17.92v180.0704c0 9.9072-8.0128 17.92-17.92 17.92z" fill="#F7F8F8" p-id="1118"></path><path d="M837.2224 240.5376c-24.9856 0-46.8736 13.2608-59.0336 33.1008l-4.5056-0.5888c-2.688-29.44-27.4432-52.5056-57.6-52.5056-24.9856 0-46.2592 15.8208-54.3488 38.016l-6.272-0.8192c-5.0432-32.7424-33.3312-57.8304-67.5072-57.8304-17.5616 0-33.5872 6.6304-45.6704 17.536-12.3136-17.8432-32.896-29.5424-56.2176-29.5424-29.6448 0-54.8608 18.8928-64.3072 45.2864a73.4592 73.4592 0 0 0-41.344-12.6464c-40.7808 0-73.856 33.0752-73.856 73.856 0 40.7808 33.0752 73.856 73.856 73.856 7.1424 0 14.0288-1.024 20.5824-2.9184-0.2816 2.432-0.4608 4.8896-0.4608 7.3984 0 34.7904 28.1856 62.976 62.976 62.976 27.9552 0 51.6608-18.2272 59.8784-43.4432 7.7568 19.7888 26.9824 33.8176 49.5104 33.8176 14.336 0 27.3408-5.7088 36.8896-14.9248a52.7616 52.7616 0 0 0 22.5536 5.0688c20.8896 0 38.912-12.0576 47.6416-29.568 9.4976 8.8064 22.1696 14.208 36.1216 14.208 28.9536 0 52.4544-23.1424 53.1456-51.9168l10.368-0.7936c12.416 18.5856 33.5872 30.848 57.6 30.848 38.2464 0 69.2224-31.0016 69.2224-69.2224s-30.976-69.248-69.2224-69.248z" fill="#FFFFFF" p-id="1119"></path><path d="M463.5136 458.752c-41.0624 0-75.4944-28.928-83.9936-67.456-53.0176-0.4864-95.9744-43.7504-95.9744-96.896 0-53.4272 43.4688-96.896 96.896-96.896 10.8544 0 21.504 1.792 31.5904 5.2736 16.896-23.3472 44.3136-37.9136 74.0608-37.9136 22.1952 0 43.3664 8.0896 59.776 22.2976a91.26912 91.26912 0 0 1 42.1376-10.2912c31.3088 0 59.0592 15.744 75.5456 39.9104 14.208-12.1344 32.64-19.2768 52.5824-19.2768 28.3904 0 53.4272 14.72 67.8656 36.9152 15.2832-10.8032 33.792-16.9472 53.2736-16.9472 50.8672 0 92.2624 41.3952 92.2624 92.2624s-41.3952 92.2624-92.2624 92.2624a92.1088 92.1088 0 0 1-54.2976-17.6896c-13.0048 23.552-38.0672 39.552-66.816 39.552-10.5984 0-20.9152-2.2016-30.4384-6.3488-13.9776 13.7472-32.9216 21.7088-53.3248 21.7088-6.1952 0-12.3136-0.7424-18.2528-2.2272a75.80416 75.80416 0 0 1-41.1648 12.0832c-17.7664 0-34.3552-6.016-47.5392-16.5376a86.0288 86.0288 0 0 1-61.9264 26.2144z m-62.5152-116.48c5.4016 0 10.6752 1.8944 14.8992 5.4784a23.08608 23.08608 0 0 1 7.9872 20.2752c-0.2048 1.664-0.2816 3.2-0.2816 4.7104 0 22.016 17.92 39.936 39.936 39.936 17.3312 0 32.5888-11.0592 37.9648-27.5456a23.09888 23.09888 0 0 1 21.2224-15.8976c9.6256-0.256 18.56 5.5552 22.1184 14.6176 4.5824 11.648 15.5904 19.1744 28.0576 19.1744 7.808 0 15.2576-3.0208 20.9152-8.4736a23.0656 23.0656 0 0 1 25.7792-4.2752c4.0704 1.92 8.3712 2.8928 12.7488 2.8928 11.4944 0 21.8368-6.4256 27.008-16.7936a23.00672 23.00672 0 0 1 16.4864-12.3904c7.1424-1.3056 14.4896 0.8192 19.8144 5.76 5.632 5.2224 12.9024 8.0896 20.48 8.0896 16.64 0 30.1824-13.5424 30.1824-30.1824 0-0.384-0.0256-0.7936-0.0512-1.1776l-0.0256-0.512a23.06816 23.06816 0 0 1 18.4576-23.8336l7.3984-1.4848a23.08096 23.08096 0 0 1 24.7296 11.4432c8.1408 14.7456 23.6544 23.8848 40.448 23.8848 25.472 0 46.1824-20.7104 46.1824-46.1824s-20.7104-46.1824-46.1824-46.1824c-18.3296 0-34.9184 10.8544-42.3168 27.648-4.48 10.2144-15.6672 15.744-26.5216 13.1328a23.08352 23.08352 0 0 1-17.5872-23.808c0.0512-0.7168 0.0768-1.4336 0.0768-2.1504 0-19.2-15.616-34.7904-34.7904-34.7904-16.2816 0-30.2336 11.0592-33.8944 26.9056a23.04 23.04 0 0 1-26.1376 17.5616l-3.5584-0.5888a23.02976 23.02976 0 0 1-19.328-21.5808c-1.2032-24.064-21.0688-42.9312-45.2096-42.9312-11.1872 0-21.9392 4.1216-30.2592 11.6224a23.06048 23.06048 0 0 1-34.3808-4.0192 45.31712 45.31712 0 0 0-37.2736-19.584c-19.072 0-36.1984 12.0576-42.624 30.0032a22.99392 22.99392 0 0 1-14.5408 14.1312c-6.784 2.2016-14.1824 1.1776-20.0704-2.816a50.50112 50.50112 0 0 0-28.416-8.6784c-28.0064 0-50.816 22.784-50.816 50.816s22.784 50.816 50.816 50.816c4.7872 0 9.5488-0.6912 14.1568-2.0224 2.0992-0.6912 4.2496-0.9984 6.4-0.9984z" fill="#474E54" p-id="1120"></path><path d="M383.4624 449.408L342.6304 77.1328H195.4048L154.752 447.7184c-37.7344 20.6336-63.3088 60.6976-63.3088 106.7264v349.9264c0 14.72 11.9296 26.624 26.624 26.624h299.1616c14.72 0 26.624-11.9296 26.624-26.624V554.4448c0-44.8256-24.2944-83.968-60.3904-105.0368z" fill="#70E7D3" p-id="1121"></path><path d="M417.2288 930.9952c14.72 0 26.624-11.9296 26.624-26.624V554.4448c0-44.8256-24.2944-83.968-60.416-105.0368L342.6304 77.1328h-72.4992l49.3312 426.9312s43.136 7.3984 43.136 68.1728v358.7584h54.6304z" fill="#04B29D" p-id="1122"></path><path d="M91.4432 555.2384h223.3344v287.5904H91.4432z" fill="#77C5E8" p-id="1123"></path><path d="M405.1456 435.968L368.3328 100.1728h15.0784a23.04 23.04 0 0 0 0-46.08h-226.048a23.04 23.04 0 0 0 0 46.08h12.3392L133.0944 433.92a144.62976 144.62976 0 0 0-64.6912 120.5248v349.9264c0 27.392 22.272 49.664 49.664 49.664h299.1616c27.392 0 49.664-22.272 49.664-49.664V554.4448c0-47.1808-23.3728-91.5712-61.7472-118.4768z m-113.408 142.3104v241.5104H114.4832v-241.5104h177.2544z m129.0752 326.0928c0 1.9712-1.6128 3.584-3.584 3.584H118.0672c-1.9712 0-3.584-1.6128-3.584-3.584v-38.5024h200.2944a23.04 23.04 0 0 0 23.04-23.04V555.2384a23.04 23.04 0 0 0-23.04-23.04H117.0688a98.6368 98.6368 0 0 1 48.7424-64.256 23.0272 23.0272 0 0 0 11.8528-17.7152l38.4-350.08h105.9072l38.5792 351.744a23.0784 23.0784 0 0 0 11.2896 17.3824c30.208 17.6384 48.9728 50.2528 48.9728 85.1456v349.952z" fill="#474E54" p-id="1124"></path><path d="M218.0352 639.1808H152.6784c-9.9072 0-17.92-8.0128-17.92-17.92s8.0128-17.92 17.92-17.92h65.3568c9.9072 0 17.92 8.0128 17.92 17.92s-8.0128 17.92-17.92 17.92z" fill="#F7F8F8" p-id="1125"></path></svg>