<?xml version="1.0" standalone="no"?><!DOCTYPE svg PUBLIC "-//W3C//DTD SVG 1.1//EN" "http://www.w3.org/Graphics/SVG/1.1/DTD/svg11.dtd"><svg t="1616219518414" class="icon" viewBox="0 0 1024 1024" version="1.1" xmlns="http://www.w3.org/2000/svg" p-id="6358" xmlns:xlink="http://www.w3.org/1999/xlink" width="200" height="200"><defs><style type="text/css"></style></defs><path d="M543.9488 859.136H291.18464c-69.50912 0-126.38208-56.87296-126.38208-126.38208v-442.368c0-69.50912 56.87296-126.38208 126.38208-126.38208H543.9488c69.50912 0 126.38208 56.87296 126.38208 126.38208v7.89504a31.60064 31.60064 0 0 1-63.19104 0v-7.89504a63.37536 63.37536 0 0 0-63.19104-63.16032H291.18464a63.37536 63.37536 0 0 0-63.19104 63.19104v442.368a63.37536 63.37536 0 0 0 63.19104 63.19104H543.9488a63.37536 63.37536 0 0 0 63.19104-63.19104v-3.18464a31.60064 31.60064 0 1 1 63.19104 0v3.16416c0 69.49888-56.87296 126.37184-126.38208 126.37184z m0 0" fill="#1F91F2" p-id="6359"></path><path d="M774.59456 543.1808H512.3584a31.60064 31.60064 0 0 1 0-63.19104h262.23616a31.60064 31.60064 0 0 1 0 63.19104z m0 0" fill="#FC7265" p-id="6360"></path><path d="M701.92128 696.4224c-7.89504 0-15.80032-3.16416-20.5312-7.89504-12.63616-11.0592-14.22336-31.60064-3.16416-44.2368l116.89984-131.072 1.54624-1.62816-1.57696-1.57696-120.02304-134.28736c-11.0592-12.63616-11.0592-33.16736 3.16416-44.2368 12.63616-11.0592 33.1776-11.0592 44.2368 3.16416l118.4768 132.70016c23.69536 23.69536 23.69536 63.19104 0 86.8864l-116.89984 131.072c-4.74112 7.89504-14.21312 11.0592-22.1184 11.0592z m0 0" fill="#FC7265" p-id="6361"></path></svg>